<svg width="512" height="512" viewBox="0 0 512 512" fill="none" xmlns="http://www.w3.org/2000/svg">
<path d="M319.53 17.0714L84.5 307.429H221.7L187.925 493.032C187.861 493.396 187.877 493.77 187.973 494.127C188.069 494.484 188.242 494.816 188.481 495.099C188.719 495.382 189.016 495.609 189.352 495.765C189.687 495.921 190.053 496.001 190.423 496C190.816 496 191.204 495.907 191.556 495.731C191.908 495.554 192.213 495.298 192.449 494.982L427.5 204.571H290.3L324.236 18.9464C324.281 18.5766 324.248 18.2013 324.137 17.8455C324.026 17.4897 323.841 17.1615 323.594 16.8828C323.346 16.6041 323.042 16.3812 322.702 16.229C322.362 16.0768 321.993 15.9987 321.62 16C321.212 16.0016 320.81 16.0995 320.447 16.2857C320.084 16.4719 319.77 16.7411 319.53 17.0714Z" stroke="#FFD700" stroke-width="27.31" stroke-linecap="round" stroke-linejoin="round"/>
</svg>
