<svg width="512" height="98" viewBox="0 0 512 98" fill="none" xmlns="http://www.w3.org/2000/svg">
<path d="M7.13939 78V19.0424H42.4909V25.3758H14.2788V45.297H39.8424V51.6303H14.2788V78H7.13939ZM54.7186 78V19.0424H61.858V71.6667H89.264V78H54.7186Z" fill="white"/>
<path d="M127.503 19.2666L98.2666 55.4H115.333L111.132 78.4973C111.124 78.5426 111.126 78.5891 111.138 78.6336C111.15 78.678 111.171 78.7193 111.201 78.7545C111.231 78.7897 111.268 78.818 111.309 78.8374C111.351 78.8568 111.397 78.8668 111.443 78.8666C111.492 78.8666 111.54 78.8551 111.584 78.8331C111.627 78.8111 111.665 78.7792 111.695 78.74L140.933 42.6H123.867L128.088 19.5C128.094 19.4539 128.089 19.4072 128.076 19.363C128.062 19.3187 128.039 19.2778 128.008 19.2432C127.977 19.2085 127.939 19.1807 127.897 19.1618C127.855 19.1429 127.809 19.1331 127.763 19.1333C127.712 19.1335 127.662 19.1457 127.617 19.1689C127.571 19.192 127.532 19.2255 127.503 19.2666Z" stroke="#FFD700" stroke-width="4.26667" stroke-linecap="round" stroke-linejoin="round"/>
<path d="M184.582 33.7818C184.237 30.8646 182.836 28.6 180.379 26.9879C177.922 25.3758 174.909 24.5697 171.34 24.5697C168.729 24.5697 166.446 24.9919 164.488 25.8364C162.55 26.6808 161.034 27.8419 159.94 29.3197C158.865 30.7975 158.327 32.4768 158.327 34.3576C158.327 35.9313 158.702 37.2843 159.45 38.4167C160.218 39.5298 161.197 40.4606 162.387 41.2091C163.576 41.9384 164.824 42.5429 166.129 43.0227C167.434 43.4833 168.634 43.8576 169.727 44.1455L175.715 45.7576C177.251 46.1606 178.959 46.7172 180.84 47.4273C182.74 48.1374 184.553 49.1066 186.281 50.3348C188.027 51.5439 189.466 53.0985 190.599 54.9985C191.731 56.8985 192.297 59.2303 192.297 61.9939C192.297 65.1798 191.462 68.0586 189.793 70.6303C188.142 73.202 185.724 75.246 182.538 76.7621C179.371 78.2783 175.523 79.0364 170.994 79.0364C166.772 79.0364 163.116 78.3551 160.026 76.9924C156.955 75.6298 154.537 73.7298 152.771 71.2924C151.025 68.855 150.037 66.0242 149.806 62.8H157.176C157.368 65.0263 158.116 66.8687 159.421 68.3273C160.746 69.7667 162.415 70.8414 164.431 71.5515C166.465 72.2424 168.653 72.5879 170.994 72.5879C173.719 72.5879 176.166 72.1465 178.335 71.2636C180.504 70.3616 182.221 69.1141 183.488 67.5212C184.755 65.9091 185.388 64.0283 185.388 61.8788C185.388 59.9212 184.841 58.3283 183.747 57.1C182.653 55.8717 181.214 54.8737 179.429 54.1061C177.644 53.3384 175.715 52.6667 173.643 52.0909L166.388 50.0182C161.782 48.6939 158.136 46.8035 155.449 44.347C152.762 41.8904 151.418 38.6758 151.418 34.703C151.418 31.402 152.311 28.5232 154.096 26.0667C155.9 23.5909 158.318 21.6717 161.35 20.3091C164.402 18.9273 167.808 18.2364 171.57 18.2364C175.37 18.2364 178.748 18.9177 181.703 20.2803C184.659 21.6237 187 23.4662 188.727 25.8076C190.474 28.149 191.395 30.8071 191.491 33.7818H184.582ZM204.035 78V19.0424H211.175V45.297H242.611V19.0424H249.751V78H242.611V51.6303H211.175V78H204.035ZM284.282 57.503H294.876L300.201 64.3545L305.441 70.4576L315.315 82.8364H303.685L296.891 74.4879L293.407 69.5364L284.282 57.503ZM316.207 48.5212C316.207 54.9505 314.989 60.4202 312.551 64.9303C310.133 69.4404 306.832 72.8854 302.648 75.2652C298.484 77.6258 293.801 78.8061 288.6 78.8061C283.36 78.8061 278.658 77.6162 274.494 75.2364C270.329 72.8566 267.038 69.4116 264.62 64.9015C262.201 60.3914 260.992 54.9313 260.992 48.5212C260.992 42.0919 262.201 36.6222 264.62 32.1121C267.038 27.602 270.329 24.1667 274.494 21.8061C278.658 19.4263 283.36 18.2364 288.6 18.2364C293.801 18.2364 298.484 19.4263 302.648 21.8061C306.832 24.1667 310.133 27.602 312.551 32.1121C314.989 36.6222 316.207 42.0919 316.207 48.5212ZM303.57 48.5212C303.57 44.3566 302.946 40.8444 301.698 37.9848C300.47 35.1252 298.733 32.9566 296.488 31.4788C294.242 30.001 291.613 29.2621 288.6 29.2621C285.587 29.2621 282.957 30.001 280.712 31.4788C278.466 32.9566 276.72 35.1252 275.473 37.9848C274.244 40.8444 273.63 44.3566 273.63 48.5212C273.63 52.6859 274.244 56.198 275.473 59.0576C276.72 61.9172 278.466 64.0859 280.712 65.5636C282.957 67.0414 285.587 67.7803 288.6 67.7803C291.613 67.7803 294.242 67.0414 296.488 65.5636C298.733 64.0859 300.47 61.9172 301.698 59.0576C302.946 56.198 303.57 52.6859 303.57 48.5212ZM361.858 19.0424H374.323V57.3303C374.323 61.6293 373.296 65.3909 371.243 68.6152C369.208 71.8394 366.358 74.3535 362.693 76.1576C359.027 77.9424 354.757 78.8348 349.882 78.8348C344.988 78.8348 340.708 77.9424 337.043 76.1576C333.377 74.3535 330.527 71.8394 328.493 68.6152C326.458 65.3909 325.441 61.6293 325.441 57.3303V19.0424H337.906V56.2651C337.906 58.5106 338.396 60.5066 339.374 62.253C340.372 63.9995 341.773 65.3717 343.577 66.3697C345.382 67.3677 347.483 67.8667 349.882 67.8667C352.3 67.8667 354.402 67.3677 356.187 66.3697C357.991 65.3717 359.382 63.9995 360.361 62.253C361.359 60.5066 361.858 58.5106 361.858 56.2651V19.0424ZM397.044 19.0424V78H384.579V19.0424H397.044ZM406.666 78V70.6015L436.087 29.3197H406.609V19.0424H451.748V26.4409L422.298 67.7227H451.806V78H406.666ZM460.737 78V70.6015L490.158 29.3197H460.679V19.0424H505.819V26.4409L476.369 67.7227H505.876V78H460.737Z" fill="white"/>
</svg>
