<svg width="512" height="401" viewBox="0 0 512 401" fill="none" xmlns="http://www.w3.org/2000/svg">
<path d="M14.2788 165.533V47.6182H84.9818V60.2848H28.5576V100.127H79.6849V112.794H28.5576V165.533H14.2788ZM109.437 165.533V47.6182H123.716V152.867H178.528V165.533H109.437Z" fill="white"/>
<path d="M254.739 42.9333L196.267 115.2H230.4L221.997 161.395C221.981 161.485 221.985 161.578 222.009 161.667C222.033 161.756 222.076 161.839 222.135 161.909C222.195 161.98 222.269 162.036 222.352 162.075C222.436 162.114 222.527 162.134 222.619 162.133C222.717 162.133 222.813 162.11 222.901 162.066C222.988 162.022 223.064 161.959 223.123 161.88L281.6 89.6H247.467L255.909 43.4C255.921 43.308 255.912 43.2145 255.885 43.126C255.857 43.0374 255.811 42.9558 255.75 42.8864C255.688 42.817 255.612 42.7615 255.528 42.7237C255.443 42.6858 255.351 42.6663 255.259 42.6667C255.157 42.6671 255.057 42.6914 254.967 42.7378C254.876 42.7841 254.798 42.8511 254.739 42.9333Z" stroke="#FFD700" stroke-width="8.53333" stroke-linecap="round" stroke-linejoin="round"/>
<path d="M360.364 68.5636C359.673 62.7293 356.871 58.2 351.958 54.9757C347.045 51.7515 341.018 50.1394 333.879 50.1394C328.659 50.1394 324.091 50.9838 320.176 52.6727C316.299 54.3616 313.267 56.6838 311.079 59.6394C308.929 62.5949 307.855 65.9535 307.855 69.7151C307.855 72.8626 308.603 75.5687 310.1 77.8333C311.635 80.0596 313.593 81.9212 315.973 83.4182C318.353 84.8768 320.848 86.0858 323.458 87.0454C326.068 87.9667 328.467 88.7151 330.655 89.2909L342.63 92.5151C345.701 93.3212 349.117 94.4343 352.879 95.8545C356.679 97.2747 360.306 99.2131 363.761 101.67C367.254 104.088 370.132 107.197 372.397 110.997C374.662 114.797 375.794 119.461 375.794 124.988C375.794 131.36 374.124 137.117 370.785 142.261C367.484 147.404 362.648 151.492 356.276 154.524C349.943 157.557 342.247 159.073 333.188 159.073C324.744 159.073 317.431 157.71 311.252 154.985C305.11 152.26 300.274 148.46 296.743 143.585C293.25 138.71 291.273 133.048 290.812 126.6H305.552C305.935 131.053 307.432 134.737 310.043 137.655C312.691 140.533 316.03 142.683 320.061 144.103C324.129 145.485 328.505 146.176 333.188 146.176C338.638 146.176 343.532 145.293 347.87 143.527C352.207 141.723 355.643 139.228 358.176 136.042C360.709 132.818 361.976 129.057 361.976 124.758C361.976 120.842 360.882 117.657 358.694 115.2C356.506 112.743 353.627 110.747 350.058 109.212C346.488 107.677 342.63 106.333 338.485 105.182L323.976 101.036C314.764 98.3879 307.471 94.6071 302.097 89.6939C296.723 84.7808 294.036 78.3515 294.036 70.406C294.036 63.804 295.821 58.0465 299.391 53.1333C302.999 48.1818 307.835 44.3434 313.9 41.6182C320.003 38.8545 326.816 37.4727 334.339 37.4727C341.939 37.4727 348.695 38.8353 354.606 41.5606C360.517 44.2475 365.2 47.9323 368.655 52.6151C372.148 57.298 373.99 62.6141 374.182 68.5636H360.364ZM399.271 157V39.0848H413.549V91.5939H476.422V39.0848H490.701V157H476.422V104.261H413.549V157H399.271Z" fill="white"/>
<path d="M54.7546 320.806H75.9424L86.594 334.509L97.0727 346.715L116.821 371.473H93.5606L79.9727 354.776L73.0061 344.873L54.7546 320.806ZM118.606 302.842C118.606 315.701 116.169 326.64 111.294 335.661C106.458 344.681 99.8556 351.571 91.4879 356.33C83.1586 361.052 73.7929 363.412 63.3909 363.412C52.9121 363.412 43.5081 361.032 35.1788 356.273C26.8495 351.513 20.2667 344.623 15.4303 335.603C10.5939 326.583 8.17576 315.663 8.17576 302.842C8.17576 289.984 10.5939 279.044 15.4303 270.024C20.2667 261.004 26.8495 254.133 35.1788 249.412C43.5081 244.653 52.9121 242.273 63.3909 242.273C73.7929 242.273 83.1586 244.653 91.4879 249.412C99.8556 254.133 106.458 261.004 111.294 270.024C116.169 279.044 118.606 289.984 118.606 302.842ZM93.3303 302.842C93.3303 294.513 92.0828 287.489 89.5879 281.77C87.1313 276.05 83.6576 271.713 79.1667 268.758C74.6758 265.802 69.4172 264.324 63.3909 264.324C57.3647 264.324 52.1061 265.802 47.6152 268.758C43.1242 271.713 39.6313 276.05 37.1364 281.77C34.6798 287.489 33.4515 294.513 33.4515 302.842C33.4515 311.172 34.6798 318.196 37.1364 323.915C39.6313 329.634 43.1242 333.972 47.6152 336.927C52.1061 339.883 57.3647 341.361 63.3909 341.361C69.4172 341.361 74.6758 339.883 79.1667 336.927C83.6576 333.972 87.1313 329.634 89.5879 323.915C92.0828 318.196 93.3303 311.172 93.3303 302.842ZM209.907 243.885H234.837V320.461C234.837 329.059 232.784 336.582 228.677 343.03C224.608 349.479 218.908 354.507 211.577 358.115C204.245 361.685 195.705 363.47 185.955 363.47C176.167 363.47 167.608 361.685 160.277 358.115C152.945 354.507 147.245 349.479 143.177 343.03C139.108 336.582 137.073 329.059 137.073 320.461V243.885H162.004V318.33C162.004 322.821 162.983 326.813 164.94 330.306C166.936 333.799 169.738 336.543 173.346 338.539C176.954 340.535 181.157 341.533 185.955 341.533C190.792 341.533 194.995 340.535 198.564 338.539C202.172 336.543 204.955 333.799 206.913 330.306C208.909 326.813 209.907 322.821 209.907 318.33V243.885ZM280.279 243.885V361.8H255.349V243.885H280.279ZM299.524 361.8V347.003L358.366 264.439H299.408V243.885H389.687V258.682L330.787 341.245H389.802V361.8H299.524ZM407.665 361.8V347.003L466.508 264.439H407.55V243.885H497.829V258.682L438.929 341.245H497.944V361.8H407.665Z" fill="white"/>
</svg>
