<svg width="512" height="512" viewBox="0 0 512 512" fill="none" xmlns="http://www.w3.org/2000/svg">
<rect x="206" y="86" width="250" height="40" rx="5" fill="#001429"/>
<rect x="206" y="226" width="250" height="40" rx="5" fill="#001429"/>
<rect x="206" y="366" width="250" height="40" rx="5" fill="#001429"/>
<path d="M133.12 54.92C133.773 54.7333 134.38 54.5933 134.94 54.5C135.5 54.3133 136.06 54.1733 136.62 54.08C137.273 53.8933 138.067 53.8 139 53.8C140.027 53.7067 140.96 53.7533 141.8 53.94C142.733 54.0333 143.573 54.3133 144.32 54.78C145.16 55.1533 145.767 55.76 146.14 56.6C146.513 57.5333 146.747 58.6533 146.84 59.96C147.027 61.1733 147.12 62.4333 147.12 63.74C147.12 65.0467 147.073 66.3533 146.98 67.66C146.98 68.8733 146.98 69.9933 146.98 71.02V142.56C146.98 143.587 146.98 144.66 146.98 145.78C147.073 146.807 147.073 147.88 146.98 149C146.887 150.12 146.607 151.193 146.14 152.22C145.673 153.153 144.973 153.947 144.04 154.6C142.733 155.627 140.96 156.14 138.72 156.14C136.573 156.233 134.707 156 133.12 155.44C131.44 154.88 130.413 153.807 130.04 152.22C129.76 150.633 129.62 149.047 129.62 147.46C128.967 135.14 128.64 123.1 128.64 111.34C128.733 99.4867 128.78 87.3067 128.78 74.8C128.593 75.2667 127.94 75.6867 126.82 76.06C125.793 76.4333 124.58 76.76 123.18 77.04C121.873 77.32 120.613 77.5533 119.4 77.74C118.187 77.9267 117.393 78.02 117.02 78.02C114.593 78.3 112.353 78.0667 110.3 77.32C108.34 76.48 107.22 74.6133 106.94 71.72C106.567 68.7333 107.22 66.4 108.9 64.72C110.673 63.04 112.913 61.78 115.62 60.94C118.607 59.9133 121.5 58.8867 124.3 57.86C127.193 56.74 130.133 55.76 133.12 54.92Z" fill="#001429"/>
<path d="M114.12 227.82C112.72 229.967 111.04 231.273 109.08 231.74C107.213 232.207 105.393 232.067 103.62 231.32C101.847 230.573 100.353 229.36 99.14 227.68C98.02 225.907 97.5533 223.9 97.74 221.66C97.8333 220.167 98.2067 218.533 98.86 216.76C99.5133 214.987 100.307 213.307 101.24 211.72C102.267 210.04 103.34 208.5 104.46 207.1C105.673 205.607 106.887 204.347 108.1 203.32C110.34 201.547 112.86 200.007 115.66 198.7C118.553 197.393 121.54 196.413 124.62 195.76C127.793 195.107 130.92 194.827 134 194.92C137.173 195.013 140.113 195.48 142.82 196.32C150.287 198.653 156.073 202.34 160.18 207.38C164.287 212.42 166.34 218.953 166.34 226.98C166.34 230.807 165.967 234.26 165.22 237.34C164.567 240.327 163.353 243.22 161.58 246.02C159.9 248.82 157.613 251.667 154.72 254.56C151.92 257.453 148.42 260.627 144.22 264.08C142.82 265.293 141.373 266.507 139.88 267.72C138.387 268.933 136.893 270.147 135.4 271.36C134.933 271.733 134.047 272.293 132.74 273.04C131.433 273.787 130.267 274.533 129.24 275.28C128.213 276.027 127.607 276.727 127.42 277.38C127.233 278.033 127.98 278.407 129.66 278.5C131.713 278.687 133.347 278.733 134.56 278.64C135.773 278.547 137.407 278.5 139.46 278.5C141.887 278.5 144.267 278.453 146.6 278.36C148.933 278.267 151.267 278.313 153.6 278.5C154.533 278.593 155.56 278.64 156.68 278.64C157.8 278.547 158.92 278.547 160.04 278.64C161.16 278.64 162.233 278.78 163.26 279.06C164.287 279.247 165.173 279.667 165.92 280.32C166.667 280.973 167.227 281.86 167.6 282.98C167.973 284.1 168.16 285.313 168.16 286.62C168.253 287.833 168.16 289.047 167.88 290.26C167.6 291.38 167.133 292.267 166.48 292.92C165.267 294.32 163.773 295.02 162 295.02C160.227 294.927 158.547 294.88 156.96 294.88H106.7C105.767 294.88 104.74 294.927 103.62 295.02C102.593 295.113 101.66 295.02 100.82 294.74C99.14 294.273 98.3 293.387 98.3 292.08C98.3933 290.773 98.44 289.42 98.44 288.02C98.44 285.687 99 283.54 100.12 281.58C101.24 279.527 102.64 277.66 104.32 275.98C106.093 274.207 107.96 272.573 109.92 271.08C111.88 269.587 113.7 268.14 115.38 266.74C117.807 264.593 120.42 262.447 123.22 260.3C126.02 258.153 128.68 256.007 131.2 253.86C134.467 251.153 137.22 248.68 139.46 246.44C141.793 244.2 143.66 242.1 145.06 240.14C146.46 238.18 147.487 236.267 148.14 234.4C148.793 232.44 149.12 230.387 149.12 228.24C149.12 223.48 147.673 219.84 144.78 217.32C141.887 214.707 138.2 213.4 133.72 213.4C130.453 213.4 127.373 214.1 124.48 215.5C121.68 216.9 119.347 218.953 117.48 221.66C116.92 222.687 116.36 223.76 115.8 224.88C115.333 225.907 114.773 226.887 114.12 227.82Z" fill="#001429"/>
<path d="M101.98 350.46C100.767 349.34 100.16 347.66 100.16 345.42C100.253 344.393 100.44 343.413 100.72 342.48C101 341.453 101.513 340.567 102.26 339.82C104.313 337.953 106.507 336.88 108.84 336.6C111.173 336.32 113.693 336.087 116.4 335.9C118.547 335.807 120.46 335.807 122.14 335.9C123.82 335.9 125.733 335.9 127.88 335.9C131.147 335.9 134.693 335.947 138.52 336.04C142.44 336.133 146.127 336.273 149.58 336.46C150.98 336.553 152.38 336.74 153.78 337.02C155.18 337.3 156.44 337.813 157.56 338.56C158.68 339.213 159.567 340.1 160.22 341.22C160.967 342.247 161.387 343.553 161.48 345.14C161.573 347.007 161.293 348.78 160.64 350.46C160.08 352.14 159.287 353.773 158.26 355.36C157.233 356.853 156.067 358.3 154.76 359.7C153.547 361.007 152.38 362.22 151.26 363.34C149.207 365.487 146.873 367.773 144.26 370.2C141.647 372.627 139.313 374.913 137.26 377.06C140.9 377.527 144.4 378.367 147.76 379.58C151.213 380.793 154.247 382.473 156.86 384.62C159.473 386.767 161.527 389.473 163.02 392.74C164.607 395.913 165.4 399.74 165.4 404.22C165.4 408.7 164.513 412.853 162.74 416.68C161.06 420.507 158.68 423.867 155.6 426.76C152.52 429.56 148.88 431.753 144.68 433.34C140.48 434.927 135.86 435.72 130.82 435.72C128.673 435.72 126.34 435.533 123.82 435.16C121.393 434.787 118.967 434.227 116.54 433.48C114.113 432.733 111.78 431.8 109.54 430.68C107.393 429.467 105.527 428.02 103.94 426.34C102.82 425.22 101.84 423.913 101 422.42C100.253 420.833 99.7867 419.247 99.6 417.66C99.5067 415.98 99.8333 414.487 100.58 413.18C101.327 411.78 102.633 410.753 104.5 410.1C105.9 409.633 107.253 409.447 108.56 409.54C109.867 409.633 111.127 409.96 112.34 410.52C113.553 410.987 114.72 411.547 115.84 412.2C117.053 412.853 118.22 413.507 119.34 414.16C122.793 416.307 126.387 417.567 130.12 417.94C133.947 418.313 137.68 417.427 141.32 415.28C143.373 414.067 144.867 412.573 145.8 410.8C146.733 408.933 147.107 407.067 146.92 405.2C146.827 403.333 146.22 401.56 145.1 399.88C144.073 398.2 142.627 396.8 140.76 395.68C138.987 394.653 137.027 393.953 134.88 393.58C132.733 393.207 130.587 392.833 128.44 392.46C126.293 392.087 124.24 391.573 122.28 390.92C120.32 390.267 118.64 389.147 117.24 387.56C115.653 385.787 115.14 383.873 115.7 381.82C116.26 379.767 117.287 377.76 118.78 375.8C120.367 373.84 122.093 371.973 123.96 370.2C125.92 368.427 127.46 366.933 128.58 365.72C129.233 365.067 129.98 364.273 130.82 363.34C131.753 362.407 132.593 361.473 133.34 360.54C134.18 359.607 134.88 358.72 135.44 357.88C136.093 356.947 136.513 356.107 136.7 355.36C136.98 354.613 136.84 354.1 136.28 353.82C135.72 353.447 135.02 353.26 134.18 353.26C133.34 353.167 132.407 353.167 131.38 353.26C130.447 353.26 129.7 353.26 129.14 353.26H119.76C118.453 353.26 117.007 353.307 115.42 353.4C113.833 353.4 112.2 353.353 110.52 353.26C108.933 353.073 107.347 352.793 105.76 352.42C104.267 352.047 103.007 351.393 101.98 350.46Z" fill="#001429"/>
</svg>
